<?xml version="1.0" encoding="UTF-8" standalone="no"?>
<!-- Created with Inkscape (http://www.inkscape.org/) -->

<svg
   xmlns:dc="http://purl.org/dc/elements/1.1/"
   xmlns:cc="http://creativecommons.org/ns#"
   xmlns:rdf="http://www.w3.org/1999/02/22-rdf-syntax-ns#"
   xmlns:svg="http://www.w3.org/2000/svg"
   xmlns="http://www.w3.org/2000/svg"
   version="1.1"
   width="48.000004"
   height="52"
   id="svg2">
  <defs
     id="defs4" />
  <metadata
     id="metadata7">
    <rdf:RDF>
      <cc:Work
         rdf:about="">
        <dc:format>image/svg+xml</dc:format>
        <dc:type
           rdf:resource="http://purl.org/dc/dcmitype/StillImage" />
        <dc:title></dc:title>
      </cc:Work>
    </rdf:RDF>
  </metadata>
  <g
     transform="translate(-140.07144,-390.75508)"
     id="layer1">
    <g
       transform="translate(66.428572,3.9285714)"
       id="g3218">
      <path
         d="m 97.642868,438.82651 -8,0 0,-2 0,-2 -2,0 -2,0 0,-2 0,-2 -2,0 -2,0 0,-2 0,-2 -2,0 -2,0 0,-2 0,-2 -2,0 -2,0 0,-10 0,-10 2,0 2,0 0,-2 0,-2 2,0 2,0 0,-2 0,-2 2,0 2,0 0,-2 0,-2 2,0 2,0 0,-2 0,-2 8,0 8.000002,0 0,2 0,2 2,0 2,0 0,2 0,2 2,0 2,0 0,2 0,2 2,0 2,0 0,2 0,2 2,0 2,0 0,10 0,10 -2,0 -2,0 0,2 0,2 -2,0 -2,0 0,2 0,2 -2,0 -2,0 0,2 0,2 -2,0 -2,0 0,2 0,2 -8.000002,0 z"
         id="path3232"
         style="fill:#fefe3b" />
      <path
         d="m 97.642868,438.82651 -8,0 0,-2 0,-2 -2,0 -2,0 0,-2 0,-2 -2,0 -2,0 0,-2 0,-2 -2,0 -2,0 0,-2 0,-2 -2,0 -2,0 0,-10 0,-10 2,0 2,0 0,-2 0,-2 2,0 2,0 0,-2 0,-2 2,0 2,0 0,-2 0,-2 2,0 2,0 0,-2 0,-2 8,0 8.000002,0 0,2 0,2 2,0 2,0 0,2 0,2 2,0 2,0 0,2 0,2 2,0 2,0 0,2 0,2 2,0 2,0 0,10 0,10 -2,0 -2,0 0,2 0,2 -2,0 -2,0 0,2 0,2 -2,0 -2,0 0,2 0,2 -2,0 -2,0 0,2 0,2 -8.000002,0 z m -6,-20 2,0 0,-6 0,-6 4,0 4.000002,0 0,-2 0,-2 -4.000002,0 -4,0 0,2 0,2 -2,0 -2,0 0,6 0,6 2,0 z"
         id="path3230"
         style="fill:#e9e91d" />
      <path
         d="m 97.642868,438.82651 -8,0 0,-2 0,-2 -2,0 -2,0 0,-2 0,-2 -2,0 -2,0 0,-2 0,-2 -2,0 -2,0 0,-2 0,-2 -2,0 -2,0 0,-10 0,-10 2,0 2,0 0,-2 0,-2 2,0 2,0 0,-2 0,-2 2,0 2,0 0,-2 0,-2 2,0 2,0 0,-2 0,-2 8,0 8.000002,0 0,2 0,2 2,0 2,0 0,2 0,2 2,0 2,0 0,2 0,2 2,0 2,0 0,2 0,2 2,0 2,0 0,10 0,10 -2,0 -2,0 0,2 0,2 -2,0 -2,0 0,2 0,2 -2,0 -2,0 0,2 0,2 -2,0 -2,0 0,2 0,2 -8.000002,0 z m -18,-16 2,0 0,-8 0,-8 2,0 2,0 0,-2 0,-2 2,0 2,0 0,-2 0,-2 2,0 2,0 0,-2 0,-2 6,0 6.000002,0 0,-2 0,-2 -8.000002,0 -8,0 0,2 0,2 -2,0 -2,0 0,2 0,2 -2,0 -2,0 0,2 0,2 -2,0 -2,0 0,10 0,10 2,0 z m 12,-4 2,0 0,-2 0,-2 2,0 2,0 0,-2 0,-2 2,0 2.000002,0 0,-4 0,-4 -4.000002,0 -4,0 0,2 0,2 -2,0 -2,0 0,6 0,6 2,0 z"
         id="path3228"
         style="fill:#cbcb00" />
      <path
         d="m 97.642868,438.82651 -8,0 0,-2 0,-2 -2,0 -2,0 0,-2 0,-2 -2,0 -2,0 0,-2 0,-2 -2,0 -2,0 0,-2 0,-2 -2,0 -2,0 0,-10 0,-10 2,0 2,0 0,-2 0,-2 2,0 2,0 0,-2 0,-2 2,0 2,0 0,-2 0,-2 2,0 2,0 0,-2 0,-2 8,0 8.000002,0 0,2 0,2 2,0 2,0 0,2 0,2 2,0 2,0 0,2 0,2 2,0 2,0 0,2 0,2 2,0 2,0 0,10 0,10 -2,0 -2,0 0,2 0,2 -2,0 -2,0 0,2 0,2 -2,0 -2,0 0,2 0,2 -2,0 -2,0 0,2 0,2 -8.000002,0 z m -8,-12 8,0 0,-2 0,-2 -2,0 -2,0 0,-4 0,-4 2,0 2,0 0,-2 0,-2 2,0 2.000002,0 0,-2 0,-2 2,0 2,0 0,6 0,6 2,0 2,0 0,-12 0,-12 -2,0 -2,0 0,-2 0,-2 -8.000002,0 -8,0 0,2 0,2 -2,0 -2,0 0,2 0,2 -2,0 -2,0 0,2 0,2 -2,0 -2,0 0,10 0,10 2,0 2,0 0,2 0,2 8,0 z"
         id="path3226"
         style="fill:#adad00" />
      <path
         d="m 97.642868,438.82651 -8,0 0,-2 0,-2 -2,0 -2,0 0,-2 0,-2 -2,0 -2,0 0,-2 0,-2 -2,0 -2,0 0,-2 0,-2 -2,0 -2,0 0,-10 0,-10 2,0 2,0 0,-2 0,-2 2,0 2,0 0,-2 0,-2 2,0 2,0 0,-2 0,-2 2,0 2,0 0,-2 0,-2 8,0 8.000002,0 0,2 0,2 2,0 2,0 0,2 0,2 2,0 2,0 0,2 0,2 2,0 2,0 0,2 0,2 2,0 2,0 0,10 0,10 -2,0 -2,0 0,2 0,2 -2,0 -2,0 0,2 0,2 -2,0 -2,0 0,2 0,2 -2,0 -2,0 0,2 0,2 -8.000002,0 z m -2,-8 10.000002,0 0,-2 0,-2 2,0 2,0 0,-2 0,-2 2,0 2,0 0,-12 0,-12 -2,0 -2,0 0,-2 0,-2 -2,0 -2,0 0,-2 0,-2 -8.000002,0 -8,0 0,2 0,2 -2,0 -2,0 0,2 0,2 -2,0 -2,0 0,2 0,2 -2,0 -2,0 0,10 0,10 2,0 2,0 0,2 0,2 2,0 2,0 0,2 0,2 10,0 z m 2,-8 -4,0 0,-2 0,-2 4,0 4.000002,0 0,-6 0,-6 2,0 2,0 0,6 0,6 -2,0 -2,0 0,2 0,2 -4.000002,0 z"
         id="path3224"
         style="fill:#8f8f00" />
      <path
         d="m 97.642868,438.82651 -8,0 0,-2 0,-2 -2,0 -2,0 0,-2 0,-2 -2,0 -2,0 0,-2 0,-2 -2,0 -2,0 0,-2 0,-2 -2,0 -2,0 0,-10 0,-10 2,0 2,0 0,-2 0,-2 2,0 2,0 0,-2 0,-2 2,0 2,0 0,-2 0,-2 2,0 2,0 0,-2 0,-2 8,0 8.000002,0 0,2 0,2 2,0 2,0 0,2 0,2 2,0 2,0 0,2 0,2 2,0 2,0 0,2 0,2 2,0 2,0 0,10 0,10 -2,0 -2,0 0,2 0,2 -2,0 -2,0 0,2 0,2 -2,0 -2,0 0,2 0,2 -2,0 -2,0 0,2 0,2 -8.000002,0 z m -2,-8 10.000002,0 0,-2 0,-2 2,0 2,0 0,-2 0,-2 2,0 2,0 0,-12 0,-12 -2,0 -2,0 0,-2 0,-2 -2,0 -2,0 0,-2 0,-2 -8.000002,0 -8,0 0,2 0,2 -2,0 -2,0 0,2 0,2 -2,0 -2,0 0,2 0,2 -2,0 -2,0 0,10 0,10 2,0 2,0 0,2 0,2 2,0 2,0 0,2 0,2 10,0 z"
         id="path3222"
         style="fill:#717100" />
      <path
         d="m 97.642868,438.82651 -8,0 0,-2 0,-2 -2,0 -2,0 0,-2 0,-2 -2,0 -2,0 0,-2 0,-2 -2,0 -2,0 0,-2 0,-2 -2,0 -2,0 0,-10 0,-10 2,0 2,0 0,-2 0,-2 2,0 2,0 0,-2 0,-2 2,0 2,0 0,-2 0,-2 2,0 2,0 0,-2 0,-2 8,0 8.000002,0 0,2 0,2 2,0 2,0 0,2 0,2 2,0 2,0 0,2 0,2 2,0 2,0 0,2 0,2 2,0 2,0 0,10 0,10 -2,0 -2,0 0,2 0,2 -2,0 -2,0 0,2 0,2 -2,0 -2,0 0,2 0,2 -2,0 -2,0 0,2 0,2 -8.000002,0 z m 0,-4 8.000002,0 0,-2 0,-2 2,0 2,0 0,-2 0,-2 2,0 2,0 0,-2 0,-2 2,0 2,0 0,-10 0,-10 -2,0 -2,0 0,-2 0,-2 -2,0 -2,0 0,-2 0,-2 -2,0 -2,0 0,-2 0,-2 -8.000002,0 -8,0 0,2 0,2 -2,0 -2,0 0,2 0,2 -2,0 -2,0 0,2 0,2 -2,0 -2,0 0,10 0,10 2,0 2,0 0,2 0,2 2,0 2,0 0,2 0,2 2,0 2,0 0,2 0,2 8,0 z"
         id="path3220"
         style="fill:#000000" />
    </g>
  </g>
</svg>
