<?xml version="1.0" encoding="UTF-8" standalone="no"?>
<!-- Created with Inkscape (http://www.inkscape.org/) -->

<svg
   xmlns:dc="http://purl.org/dc/elements/1.1/"
   xmlns:cc="http://creativecommons.org/ns#"
   xmlns:rdf="http://www.w3.org/1999/02/22-rdf-syntax-ns#"
   xmlns:svg="http://www.w3.org/2000/svg"
   xmlns="http://www.w3.org/2000/svg"
   version="1.1"
   width="100"
   height="180"
   id="svg2">
  <defs
     id="defs4" />
  <metadata
     id="metadata7">
    <rdf:RDF>
      <cc:Work
         rdf:about="">
        <dc:format>image/svg+xml</dc:format>
        <dc:type
           rdf:resource="http://purl.org/dc/dcmitype/StillImage" />
        <dc:title></dc:title>
      </cc:Work>
    </rdf:RDF>
  </metadata>
  <g
     transform="translate(-292.9142,-407.1698)"
     id="layer1">
    <g
       transform="translate(150.71429,29.285714)"
       id="g3191">
      <path
         d="m 170.19991,555.88409 0,-2 -4,0 -4,0 0,-2 0,-2 -2,0 -2,0 0,-2 0,-2 -2,0 -2,0 0,-2 0,-2 -2,0 -2,0 0,-28 0,-28 -2,0 -2,0 0,-2 0,-2 -2,0 -2,0 0,-2 0,-2 2,0 2,0 0,-2 0,-2 2,0 2,0 0,-44 0,-44 2,0 2,0 0,-2 0,-2 2,0 2,0 0,-2 0,-2 34,0 34,0 0,2 0,2 2,0 2,0 0,2 0,2 2,0 2,0 0,44 0,44 2,0 2,0 0,2 0,2 2,0 2,0 0,2 0,2 -2,0 -2,0 0,2 0,2 -2,0 -2,0 0,28 0,28 -2,0 -2,0 0,2 0,2 -2,0 -2,0 0,2 0,2 -2,0 -2,0 0,2 0,2 -4,0 -4,0 0,2 0,2 -22,0 -22,0 0,-2 z"
         id="path3207"
         style="fill:#f6f6f6" />
      <path
         d="m 170.19991,555.88409 0,-2 -4,0 -4,0 0,-2 0,-2 -2,0 -2,0 0,-2 0,-2 -2,0 -2,0 0,-2 0,-2 -2,0 -2,0 0,-28 0,-28 -2,0 -2,0 0,-2 0,-2 -2,0 -2,0 0,-2 0,-2 2,0 2,0 0,-2 0,-2 2,0 2,0 0,-44 0,-44 2,0 2,0 0,-2 0,-2 2,0 2,0 0,-2 0,-2 34,0 34,0 0,2 0,2 2,0 2,0 0,2 0,2 2,0 2,0 0,44 0,44 2,0 2,0 0,2 0,2 2,0 2,0 0,2 0,2 -2,0 -2,0 0,2 0,2 -2,0 -2,0 0,28 0,28 -2,0 -2,0 0,2 0,2 -2,0 -2,0 0,2 0,2 -2,0 -2,0 0,2 0,2 -4,0 -4,0 0,2 0,2 -22,0 -22,0 0,-2 z m 48,-70 0,-4 -2,0 -2,0 0,-2 0,-2 -2,0 -2,0 0,2 0,2 2,0 2,0 0,4 0,4 2,0 2,0 0,-4 z m -60,-18 0,-2 2,0 2,0 0,-2 0,-2 -2,0 -2,0 0,2 0,2 -2,0 -2,0 0,2 0,2 2,0 2,0 0,-2 z m 72,0 0,-2 -2,0 -2,0 0,-2 0,-2 -2,0 -2,0 0,2 0,2 2,0 2,0 0,2 0,2 2,0 2,0 0,-2 z m -72,-32 0,-2 -2,0 -2,0 0,2 0,2 2,0 2,0 0,-2 z m 72,0 0,-2 -2,0 -2,0 0,2 0,2 2,0 2,0 0,-2 z"
         id="path3205"
         style="fill:#78fefe" />
      <path
         d="m 170.19991,555.88409 0,-2 -4,0 -4,0 0,-2 0,-2 -2,0 -2,0 0,-2 0,-2 -2,0 -2,0 0,-2 0,-2 -2,0 -2,0 0,-28 0,-28 -2,0 -2,0 0,-2 0,-2 -2,0 -2,0 0,-2 0,-2 2,0 2,0 0,-2 0,-2 2,0 2,0 0,-44 0,-44 2,0 2,0 0,-2 0,-2 2,0 2,0 0,-2 0,-2 34,0 34,0 0,2 0,2 2,0 2,0 0,2 0,2 2,0 2,0 0,44 0,44 2,0 2,0 0,2 0,2 2,0 2,0 0,2 0,2 -2,0 -2,0 0,2 0,2 -2,0 -2,0 0,28 0,28 -2,0 -2,0 0,2 0,2 -2,0 -2,0 0,2 0,2 -2,0 -2,0 0,2 0,2 -4,0 -4,0 0,2 0,2 -22,0 -22,0 0,-2 z m 36,-56 0,-2 6,0 6,0 0,-2 0,-2 4,0 4,0 0,-6 0,-6 -2,0 -2,0 0,-6 0,-6 2,0 2,0 0,4 0,4 2,0 2,0 0,-14 0,-14 -2,0 -2,0 0,4 0,4 -2,0 -2,0 0,6 0,6 -2,0 -2,0 0,2 0,2 -6,0 -6,0 0,2 0,2 -14,0 -14,0 0,-2 0,-2 -2,0 -2,0 0,4 0,4 -2,0 -2,0 0,8 0,8 4,0 4,0 0,2 0,2 14,0 14,0 0,-2 z m -48,-26 0,-4 2,0 2,0 0,-6 0,-6 -2,0 -2,0 0,-4 0,-4 -2,0 -2,0 0,14 0,14 2,0 2,0 0,-4 z m 0,-40 0,-12 -2,0 -2,0 0,12 0,12 2,0 2,0 0,-12 z m 72,0 0,-12 -2,0 -2,0 0,12 0,12 2,0 2,0 0,-12 z"
         id="path3203"
         style="fill:#53ecec" />
      <path
         d="m 170.19991,555.88409 0,-2 -4,0 -4,0 0,-2 0,-2 -2,0 -2,0 0,-2 0,-2 -2,0 -2,0 0,-2 0,-2 -2,0 -2,0 0,-28 0,-28 -2,0 -2,0 0,-2 0,-2 -2,0 -2,0 0,-2 0,-2 2,0 2,0 0,-2 0,-2 2,0 2,0 0,-44 0,-44 2,0 2,0 0,-2 0,-2 2,0 2,0 0,-2 0,-2 34,0 34,0 0,2 0,2 2,0 2,0 0,2 0,2 2,0 2,0 0,44 0,44 2,0 2,0 0,2 0,2 2,0 2,0 0,2 0,2 -2,0 -2,0 0,2 0,2 -2,0 -2,0 0,28 0,28 -2,0 -2,0 0,2 0,2 -2,0 -2,0 0,2 0,2 -2,0 -2,0 0,2 0,2 -4,0 -4,0 0,2 0,2 -22,0 -22,0 0,-2 z m 36,-56 0,-2 6,0 6,0 0,-2 0,-2 4,0 4,0 0,-6 0,-6 -2,0 -2,0 0,-6 0,-6 2,0 2,0 0,4 0,4 2,0 2,0 0,-14 0,-14 -2,0 -2,0 0,4 0,4 -2,0 -2,0 0,6 0,6 -2,0 -2,0 0,2 0,2 -6,0 -6,0 0,2 0,2 -14,0 -14,0 0,-2 0,-2 -6,0 -6,0 0,-2 0,-2 -2,0 -2,0 0,-6 0,-6 -2,0 -2,0 0,-4 0,-4 -2,0 -2,0 0,14 0,14 2,0 2,0 0,-4 0,-4 2,0 2,0 0,6 0,6 -2,0 -2,0 0,6 0,6 4,0 4,0 0,2 0,2 6,0 6,0 0,2 0,2 14,0 14,0 0,-2 z m -48,-66 0,-12 -2,0 -2,0 0,12 0,12 2,0 2,0 0,-12 z m 72,0 0,-12 -2,0 -2,0 0,12 0,12 2,0 2,0 0,-12 z"
         id="path3201"
         style="fill:#7fc476" />
      <path
         d="m 170.19991,555.88409 0,-2 -4,0 -4,0 0,-2 0,-2 -2,0 -2,0 0,-2 0,-2 -2,0 -2,0 0,-2 0,-2 -2,0 -2,0 0,-28 0,-28 -2,0 -2,0 0,-2 0,-2 -2,0 -2,0 0,-2 0,-2 2,0 2,0 0,-2 0,-2 2,0 2,0 0,-44 0,-44 2,0 2,0 0,-2 0,-2 2,0 2,0 0,-2 0,-2 34,0 34,0 0,2 0,2 2,0 2,0 0,2 0,2 2,0 2,0 0,44 0,44 2,0 2,0 0,2 0,2 2,0 2,0 0,2 0,2 -2,0 -2,0 0,2 0,2 -2,0 -2,0 0,28 0,28 -2,0 -2,0 0,2 0,2 -2,0 -2,0 0,2 0,2 -2,0 -2,0 0,2 0,2 -4,0 -4,0 0,2 0,2 -22,0 -22,0 0,-2 z m 44,-16 0,-2 4,0 4,0 0,-2 0,-2 2,0 2,0 0,-2 0,-2 2,0 2,0 0,-16 0,-16 -6,0 -6,0 0,-2 0,-2 4,0 4,0 0,-6 0,-6 -2,0 -2,0 0,-6 0,-6 2,0 2,0 0,4 0,4 2,0 2,0 0,-14 0,-14 -2,0 -2,0 0,4 0,4 -2,0 -2,0 0,-18 0,-18 2,0 2,0 0,12 0,12 2,0 2,0 0,-12 0,-12 -2,0 -2,0 0,-2 0,-2 2,0 2,0 0,-16 0,-16 -2,0 -2,0 0,-2 0,-2 -2,0 -2,0 0,2 0,2 -2,0 -2,0 0,-2 0,-2 -6,0 -6,0 0,2 0,2 2,0 2,0 0,2 0,2 2,0 2,0 0,8 0,8 4,0 4,0 0,-10 0,-10 2,0 2,0 0,12 0,12 -2,0 -2,0 0,6 0,6 -2,0 -2,0 0,-6 0,-6 -6,0 -6,0 0,2 0,2 2,0 2,0 0,4 0,4 2,0 2,0 0,4 0,4 2,0 2,0 0,10 0,10 -2,0 -2,0 0,6 0,6 -2,0 -2,0 0,2 0,2 -2,0 -2,0 0,2 0,2 6,0 6,0 0,2 0,2 -6,0 -6,0 0,2 0,2 -14,0 -14,0 0,-2 0,-2 -6,0 -6,0 0,-2 0,-2 -2,0 -2,0 0,-6 0,-6 -2,0 -2,0 0,-4 0,-4 -2,0 -2,0 0,14 0,14 2,0 2,0 0,-4 0,-4 2,0 2,0 0,6 0,6 -2,0 -2,0 0,6 0,6 4,0 4,0 0,2 0,2 6,0 6,0 0,2 0,2 14,0 14,0 0,-2 0,-2 6,0 6,0 0,2 0,2 2,0 2,0 0,14 0,14 -2,0 -2,0 0,2 0,2 -4,0 -4,0 0,2 0,2 -2,0 -2,0 0,2 0,2 4,0 4,0 0,-2 z m 4,-76 0,-6 2,0 2,0 0,6 0,6 -2,0 -2,0 0,-6 z m -60,-30 0,-12 -2,0 -2,0 0,12 0,12 2,0 2,0 0,-12 z"
         id="path3199"
         style="fill:#65b657" />
      <path
         d="m 170.19991,555.88409 0,-2 -4,0 -4,0 0,-2 0,-2 -2,0 -2,0 0,-2 0,-2 -2,0 -2,0 0,-2 0,-2 -2,0 -2,0 0,-28 0,-28 -2,0 -2,0 0,-2 0,-2 -2,0 -2,0 0,-2 0,-2 2,0 2,0 0,-2 0,-2 2,0 2,0 0,-44 0,-44 2,0 2,0 0,-2 0,-2 2,0 2,0 0,-2 0,-2 34,0 34,0 0,2 0,2 2,0 2,0 0,2 0,2 2,0 2,0 0,44 0,44 2,0 2,0 0,2 0,2 2,0 2,0 0,2 0,2 -2,0 -2,0 0,2 0,2 -2,0 -2,0 0,28 0,28 -2,0 -2,0 0,2 0,2 -2,0 -2,0 0,2 0,2 -2,0 -2,0 0,2 0,2 -4,0 -4,0 0,2 0,2 -22,0 -22,0 0,-2 z m 0,-12 0,-2 -4,0 -4,0 0,-2 0,-2 -2,0 -2,0 0,-2 0,-2 -2,0 -2,0 0,2 0,2 2,0 2,0 0,2 0,2 2,0 2,0 0,2 0,2 4,0 4,0 0,-2 z m 52,0 0,-2 2,0 2,0 0,-2 0,-2 2,0 2,0 0,-2 0,-2 -2,0 -2,0 0,-2 0,-2 2,0 2,0 0,-16 0,-16 -6,0 -6,0 0,-2 0,-2 4,0 4,0 0,-6 0,-6 -2,0 -2,0 0,-6 0,-6 2,0 2,0 0,4 0,4 2,0 2,0 0,2 0,2 4,0 4,0 0,-2 0,-2 -4,0 -4,0 0,-14 0,-14 -2,0 -2,0 0,4 0,4 -2,0 -2,0 0,-18 0,-18 2,0 2,0 0,12 0,12 2,0 2,0 0,-12 0,-12 -2,0 -2,0 0,-2 0,-2 2,0 2,0 0,-16 0,-16 -2,0 -2,0 0,-2 0,-2 -2,0 -2,0 0,2 0,2 -2,0 -2,0 0,-2 0,-2 -16,0 -16,0 0,2 0,2 -6,0 -6,0 0,2 0,2 -2,0 -2,0 0,8 0,8 4,0 4,0 0,4 0,4 -4,0 -4,0 0,4 0,4 -2,0 -2,0 0,16 0,16 2,0 2,0 0,6 0,6 4,0 4,0 0,4 0,4 -6,0 -6,0 0,-2 0,-2 -2,0 -2,0 0,-6 0,-6 -2,0 -2,0 0,-4 0,-4 -2,0 -2,0 0,14 0,14 -4,0 -4,0 0,2 0,2 4,0 4,0 0,-2 0,-2 2,0 2,0 0,-4 0,-4 2,0 2,0 0,6 0,6 -2,0 -2,0 0,6 0,6 4,0 4,0 0,2 0,2 6,0 6,0 0,2 0,2 -8,0 -8,0 0,12 0,12 2,0 2,0 0,2 0,2 2,0 2,0 0,2 0,2 2,0 2,0 0,2 0,2 4,0 4,0 0,2 0,2 16,0 16,0 0,2 0,2 4,0 4,0 0,-2 z m -8,-4 0,-2 4,0 4,0 0,-2 0,-2 2,0 2,0 0,2 0,2 -2,0 -2,0 0,2 0,2 -4,0 -4,0 0,-2 z m -36,-36 0,-2 14,0 14,0 0,-2 0,-2 6,0 6,0 0,2 0,2 -6,0 -6,0 0,2 0,2 -14,0 -14,0 0,-2 z m 0,-28 0,-2 14,0 14,0 0,-2 0,-2 6,0 6,0 0,-6 0,-6 2,0 2,0 0,6 0,6 -2,0 -2,0 0,2 0,2 -6,0 -6,0 0,2 0,2 -14,0 -14,0 0,-2 z m 40,-60 0,-6 -6,0 -6,0 0,-2 0,-2 -14,0 -14,0 0,-2 0,-2 14,0 14,0 0,2 0,2 8,0 8,0 0,-10 0,-10 2,0 2,0 0,12 0,12 -2,0 -2,0 0,6 0,6 -2,0 -2,0 0,-6 z m -60,18 0,-12 -2,0 -2,0 0,12 0,12 2,0 2,0 0,-12 z"
         id="path3197"
         style="fill:#337927" />
      <path
         d="m 170.19991,555.88409 0,-2 -4,0 -4,0 0,-2 0,-2 -2,0 -2,0 0,-2 0,-2 -2,0 -2,0 0,-2 0,-2 -2,0 -2,0 0,-28 0,-28 -2,0 -2,0 0,-2 0,-2 -2,0 -2,0 0,-2 0,-2 2,0 2,0 0,-2 0,-2 2,0 2,0 0,-44 0,-44 2,0 2,0 0,-2 0,-2 2,0 2,0 0,-2 0,-2 34,0 34,0 0,2 0,2 2,0 2,0 0,2 0,2 2,0 2,0 0,44 0,44 2,0 2,0 0,2 0,2 2,0 2,0 0,2 0,2 -2,0 -2,0 0,2 0,2 -2,0 -2,0 0,28 0,28 -2,0 -2,0 0,2 0,2 -2,0 -2,0 0,2 0,2 -2,0 -2,0 0,2 0,2 -4,0 -4,0 0,2 0,2 -22,0 -22,0 0,-2 z m 48,-8 0,-2 4,0 4,0 0,-2 0,-2 2,0 2,0 0,-4 0,-4 -2,0 -2,0 0,-2 0,-2 2,0 2,0 0,-16 0,-16 -6,0 -6,0 0,-2 0,-2 4,0 4,0 0,-6 0,-6 -2,0 -2,0 0,-6 0,-6 2,0 2,0 0,4 0,4 2,0 2,0 0,2 0,2 4,0 4,0 0,-2 0,-2 -4,0 -4,0 0,-14 0,-14 -2,0 -2,0 0,4 0,4 -2,0 -2,0 0,-18 0,-18 2,0 2,0 0,12 0,12 2,0 2,0 0,-12 0,-12 -2,0 -2,0 0,-2 0,-2 2,0 2,0 0,-16 0,-16 -2,0 -2,0 0,-2 0,-2 -2,0 -2,0 0,2 0,2 -2,0 -2,0 0,-2 0,-2 -26,0 -26,0 0,2 0,2 -2,0 -2,0 0,-2 0,-2 -2,0 -2,0 0,2 0,2 -2,0 -2,0 0,16 0,16 2,0 2,0 0,2 0,2 -2,0 -2,0 0,12 0,12 2,0 2,0 0,-12 0,-12 2,0 2,0 0,18 0,18 -2,0 -2,0 0,-4 0,-4 -2,0 -2,0 0,14 0,14 -4,0 -4,0 0,2 0,2 4,0 4,0 0,-2 0,-2 2,0 2,0 0,-4 0,-4 2,0 2,0 0,6 0,6 -2,0 -2,0 0,6 0,6 4,0 4,0 0,2 0,2 -6,0 -6,0 0,16 0,16 2,0 2,0 0,2 0,2 -2,0 -2,0 0,2 0,2 2,0 2,0 0,2 0,2 2,0 2,0 0,2 0,2 2,0 2,0 0,2 0,2 26,0 26,0 0,-2 z m -48,-4 0,-2 -4,0 -4,0 0,-2 0,-2 -2,0 -2,0 0,-2 0,-2 2,0 2,0 0,2 0,2 4,0 4,0 0,2 0,2 22,0 22,0 0,-2 0,-2 4,0 4,0 0,-2 0,-2 2,0 2,0 0,2 0,2 -2,0 -2,0 0,2 0,2 -4,0 -4,0 0,2 0,2 -22,0 -22,0 0,-2 z m 8,-40 0,-2 -6,0 -6,0 0,-2 0,-2 6,0 6,0 0,2 0,2 14,0 14,0 0,-2 0,-2 6,0 6,0 0,2 0,2 -6,0 -6,0 0,2 0,2 -14,0 -14,0 0,-2 z m 0,-28 0,-2 -6,0 -6,0 0,-2 0,-2 -2,0 -2,0 0,-6 0,-6 2,0 2,0 0,6 0,6 6,0 6,0 0,2 0,2 14,0 14,0 0,-2 0,-2 6,0 6,0 0,-6 0,-6 2,0 2,0 0,6 0,6 -2,0 -2,0 0,2 0,2 -6,0 -6,0 0,2 0,2 -14,0 -14,0 0,-2 z m -16,-60 0,-6 -2,0 -2,0 0,-12 0,-12 2,0 2,0 0,10 0,10 8,0 8,0 0,-2 0,-2 14,0 14,0 0,2 0,2 8,0 8,0 0,-10 0,-10 2,0 2,0 0,12 0,12 -2,0 -2,0 0,6 0,6 -2,0 -2,0 0,-6 0,-6 -6,0 -6,0 0,-2 0,-2 -14,0 -14,0 0,2 0,2 -6,0 -6,0 0,6 0,6 -2,0 -2,0 0,-6 z"
         id="path3195"
         style="fill:#0a5b00" />
      <path
         d="m 170.19991,555.88409 0,-2 -4,0 -4,0 0,-2 0,-2 -2,0 -2,0 0,-2 0,-2 -2,0 -2,0 0,-2 0,-2 -2,0 -2,0 0,-28 0,-28 -2,0 -2,0 0,-2 0,-2 -2,0 -2,0 0,-2 0,-2 2,0 2,0 0,-2 0,-2 2,0 2,0 0,-44 0,-44 2,0 2,0 0,-2 0,-2 2,0 2,0 0,-2 0,-2 34,0 34,0 0,2 0,2 2,0 2,0 0,2 0,2 2,0 2,0 0,44 0,44 2,0 2,0 0,2 0,2 2,0 2,0 0,2 0,2 -2,0 -2,0 0,2 0,2 -2,0 -2,0 0,28 0,28 -2,0 -2,0 0,2 0,2 -2,0 -2,0 0,2 0,2 -2,0 -2,0 0,2 0,2 -4,0 -4,0 0,2 0,2 -22,0 -22,0 0,-2 z m 44,-4 0,-2 4,0 4,0 0,-2 0,-2 2,0 2,0 0,-2 0,-2 2,0 2,0 0,-4 0,-4 -2,0 -2,0 0,-2 0,-2 2,0 2,0 0,-16 0,-16 -6,0 -6,0 0,-2 0,-2 4,0 4,0 0,-6 0,-6 -2,0 -2,0 0,-6 0,-6 2,0 2,0 0,4 0,4 2,0 2,0 0,2 0,2 4,0 4,0 0,-2 0,-2 -4,0 -4,0 0,-14 0,-14 -2,0 -2,0 0,4 0,4 -2,0 -2,0 0,-18 0,-18 2,0 2,0 0,12 0,12 2,0 2,0 0,-12 0,-12 -2,0 -2,0 0,-2 0,-2 2,0 2,0 0,-16 0,-16 -2,0 -2,0 0,-2 0,-2 -2,0 -2,0 0,2 0,2 -2,0 -2,0 0,-2 0,-2 -26,0 -26,0 0,2 0,2 -2,0 -2,0 0,-2 0,-2 -2,0 -2,0 0,2 0,2 -2,0 -2,0 0,16 0,16 2,0 2,0 0,2 0,2 -2,0 -2,0 0,12 0,12 2,0 2,0 0,-12 0,-12 2,0 2,0 0,18 0,18 -2,0 -2,0 0,-4 0,-4 -2,0 -2,0 0,14 0,14 -4,0 -4,0 0,2 0,2 4,0 4,0 0,-2 0,-2 2,0 2,0 0,-4 0,-4 2,0 2,0 0,6 0,6 -2,0 -2,0 0,6 0,6 4,0 4,0 0,2 0,2 -6,0 -6,0 0,16 0,16 2,0 2,0 0,2 0,2 -2,0 -2,0 0,4 0,4 2,0 2,0 0,2 0,2 2,0 2,0 0,2 0,2 4,0 4,0 0,2 0,2 22,0 22,0 0,-2 z m -44,-8 0,-2 -4,0 -4,0 0,-2 0,-2 -2,0 -2,0 0,-2 0,-2 2,0 2,0 0,2 0,2 4,0 4,0 0,2 0,2 22,0 22,0 0,-2 0,-2 4,0 4,0 0,-2 0,-2 2,0 2,0 0,2 0,2 -2,0 -2,0 0,2 0,2 -4,0 -4,0 0,2 0,2 -22,0 -22,0 0,-2 z m 8,-40 0,-2 -6,0 -6,0 0,-2 0,-2 6,0 6,0 0,2 0,2 14,0 14,0 0,-2 0,-2 6,0 6,0 0,2 0,2 -6,0 -6,0 0,2 0,2 -14,0 -14,0 0,-2 z m 0,-28 0,-2 -6,0 -6,0 0,-2 0,-2 -2,0 -2,0 0,-6 0,-6 2,0 2,0 0,6 0,6 6,0 6,0 0,2 0,2 14,0 14,0 0,-2 0,-2 6,0 6,0 0,-6 0,-6 2,0 2,0 0,6 0,6 -2,0 -2,0 0,2 0,2 -6,0 -6,0 0,2 0,2 -14,0 -14,0 0,-2 z m -16,-60 0,-6 -2,0 -2,0 0,-12 0,-12 2,0 2,0 0,10 0,10 8,0 8,0 0,-2 0,-2 14,0 14,0 0,2 0,2 8,0 8,0 0,-10 0,-10 2,0 2,0 0,12 0,12 -2,0 -2,0 0,6 0,6 -2,0 -2,0 0,-6 0,-6 -6,0 -6,0 0,-2 0,-2 -14,0 -14,0 0,2 0,2 -6,0 -6,0 0,6 0,6 -2,0 -2,0 0,-6 z"
         id="path3193"
         style="fill:#000000" />
    </g>
  </g>
</svg>
