<?xml version="1.0" encoding="UTF-8" standalone="no"?>
<!-- Created with Inkscape (http://www.inkscape.org/) -->

<svg
   xmlns:dc="http://purl.org/dc/elements/1.1/"
   xmlns:cc="http://creativecommons.org/ns#"
   xmlns:rdf="http://www.w3.org/1999/02/22-rdf-syntax-ns#"
   xmlns:svg="http://www.w3.org/2000/svg"
   xmlns="http://www.w3.org/2000/svg"
   version="1.1"
   width="208"
   height="92"
   id="svg2">
  <defs
     id="defs4" />
  <metadata
     id="metadata7">
    <rdf:RDF>
      <cc:Work
         rdf:about="">
        <dc:format>image/svg+xml</dc:format>
        <dc:type
           rdf:resource="http://purl.org/dc/dcmitype/StillImage" />
        <dc:title></dc:title>
      </cc:Work>
    </rdf:RDF>
  </metadata>
  <g
     transform="translate(-300.9142,-464.45553)"
     id="layer1">
    <g
       transform="translate(233.57143,75.714286)"
       id="g3220">
      <path
         d="m 95.342773,478.74124 0,-2 -2,0 -2,0 0,-2 0,-2 -2,0 -2,0 0,-2 0,-2 -2,0 -2,0 0,2 0,2 -2,0 -2,0 0,-2 0,-2 -2,0 -2,0 0,-2 0,-2 -2,0 -2,0 0,-2 0,-2 -2,0 -2,0 0,-16 0,-16 2,0 2,0 0,-4 0,-4 4,0 4,0 0,-2 0,-2 4,0 4,0 0,-2 0,-2 6,0 6,0 0,-2 0,-2 11.999997,0 12,0 0,-2 0,-2 6,0 6,0 0,-2 0,-2 2,0 2,0 0,-2 0,-2 6,0 6,0 0,-2 0,-2 10,0 10,0 0,-2 0,-2 12,0 12,0 0,2 0,2 6,0 6,0 0,2 0,2 4,0 4,0 0,2 0,2 4,0 4,0 0,2 0,2 2,0 2,0 0,2 0,2 14,0 14,0 0,2 0,2 2,0 2,0 0,2 0,2 2,0 2,0 0,2 0,2 2,0 2,0 0,2 0,2 2,0 2,0 0,6 0,6 2,0 2,0 0,10 0,10 -2,0 -2,0 0,2 0,2 -2,0 -2,0 0,2 0,2 -2,0 -2,0 0,2 0,2 -4,0 -4,0 0,2 0,2 -2,0 -2,0 0,2 0,2 -2,0 -2,0 0,2 0,2 -8,0 -8,0 0,-2 0,-2 -2,0 -2,0 0,-2 0,-2 -2,0 -2,0 0,-2 0,-2 -2,0 -2,0 0,2 0,2 -48,0 -48,0 0,-2 0,-2 -2,0 -2,0 0,2 0,2 -2,0 -2,0 0,2 0,2 -2,0 -2,0 0,2 0,2 -8,0 -7.999997,0 0,-2 z"
         id="path3238"
         style="fill:#f6f6f6" />
      <path
         d="m 95.342773,478.74124 0,-2 -2,0 -2,0 0,-2 0,-2 -2,0 -2,0 0,-2 0,-2 -2,0 -2,0 0,2 0,2 -2,0 -2,0 0,-2 0,-2 -2,0 -2,0 0,-2 0,-2 -2,0 -2,0 0,-2 0,-2 -2,0 -2,0 0,-16 0,-16 2,0 2,0 0,-4 0,-4 4,0 4,0 0,-2 0,-2 4,0 4,0 0,-2 0,-2 6,0 6,0 0,-2 0,-2 11.999997,0 12,0 0,-2 0,-2 6,0 6,0 0,-2 0,-2 2,0 2,0 0,-2 0,-2 6,0 6,0 0,-2 0,-2 10,0 10,0 0,-2 0,-2 12,0 12,0 0,2 0,2 6,0 6,0 0,2 0,2 4,0 4,0 0,2 0,2 4,0 4,0 0,2 0,2 2,0 2,0 0,2 0,2 14,0 14,0 0,2 0,2 2,0 2,0 0,2 0,2 2,0 2,0 0,2 0,2 2,0 2,0 0,2 0,2 2,0 2,0 0,6 0,6 2,0 2,0 0,10 0,10 -2,0 -2,0 0,2 0,2 -2,0 -2,0 0,2 0,2 -2,0 -2,0 0,2 0,2 -4,0 -4,0 0,2 0,2 -2,0 -2,0 0,2 0,2 -2,0 -2,0 0,2 0,2 -8,0 -8,0 0,-2 0,-2 -2,0 -2,0 0,-2 0,-2 -2,0 -2,0 0,-2 0,-2 -2,0 -2,0 0,2 0,2 -48,0 -48,0 0,-2 0,-2 -2,0 -2,0 0,2 0,2 -2,0 -2,0 0,2 0,2 -2,0 -2,0 0,2 0,2 -8,0 -7.999997,0 0,-2 z m 11.999997,-10 0,-4 -4,0 -3.999997,0 0,4 0,4 3.999997,0 4,0 0,-4 z m 136,0 0,-4 -4,0 -4,0 0,4 0,4 4,0 4,0 0,-4 z m -60,-34 0,-6 2,0 2,0 0,6 0,6 16,0 16,0 0,-2 0,-2 4,0 4,0 0,-4 0,-4 2,0 2,0 0,4 0,4 2,0 2,0 0,2 0,2 2,0 2,0 0,-6 0,-6 -2,0 -2,0 0,-4 0,-4 -2,0 -2,0 0,-2 0,-2 -2,0 -2,0 0,-4 0,-4 -2,0 -2,0 0,-2 0,-2 -4,0 -4,0 0,6 0,6 2,0 2,0 0,2 0,2 2,0 2,0 0,2 0,2 -4,0 -4,0 0,-2 0,-2 -12,0 -12,0 0,4 0,4 -2,0 -2,0 0,-4 0,-4 -10,0 -10,0 0,2 0,2 -4,0 -4,0 0,2 0,2 -4,0 -4,0 0,4 0,4 -4,0 -4,0 0,2 0,2 20,0 20,0 0,-6 z m 40,-8 0,-2 2,0 2,0 0,2 0,2 -2,0 -2,0 0,-2 z m -92,8 0,-2 2,0 2,0 0,-2 0,-2 4,0 4,0 0,-2 0,-2 2,0 2,0 0,-2 0,-2 2,0 2,0 0,-2 0,-2 -2,0 -2,0 0,-8 0,-8 -4,0 -4,0 0,2 0,2 -2,0 -2,0 0,2 0,2 -6,0 -6,0 0,4 0,4 -2,0 -2,0 0,8 0,8 2,0 2,0 0,2 0,2 4,0 4,0 0,-2 z"
         id="path3236"
         style="fill:#7dfefe" />
      <path
         d="m 95.342773,478.74124 0,-2 -2,0 -2,0 0,-2 0,-2 -2,0 -2,0 0,-2 0,-2 -2,0 -2,0 0,2 0,2 -2,0 -2,0 0,-2 0,-2 -2,0 -2,0 0,-2 0,-2 -2,0 -2,0 0,-2 0,-2 -2,0 -2,0 0,-16 0,-16 2,0 2,0 0,-4 0,-4 4,0 4,0 0,-2 0,-2 4,0 4,0 0,-2 0,-2 6,0 6,0 0,-2 0,-2 11.999997,0 12,0 0,-2 0,-2 6,0 6,0 0,-2 0,-2 2,0 2,0 0,-2 0,-2 6,0 6,0 0,-2 0,-2 10,0 10,0 0,-2 0,-2 12,0 12,0 0,2 0,2 6,0 6,0 0,2 0,2 4,0 4,0 0,2 0,2 4,0 4,0 0,2 0,2 2,0 2,0 0,2 0,2 14,0 14,0 0,2 0,2 2,0 2,0 0,2 0,2 2,0 2,0 0,2 0,2 2,0 2,0 0,2 0,2 2,0 2,0 0,6 0,6 2,0 2,0 0,10 0,10 -2,0 -2,0 0,2 0,2 -2,0 -2,0 0,2 0,2 -2,0 -2,0 0,2 0,2 -4,0 -4,0 0,2 0,2 -2,0 -2,0 0,2 0,2 -2,0 -2,0 0,2 0,2 -8,0 -8,0 0,-2 0,-2 -2,0 -2,0 0,-2 0,-2 -2,0 -2,0 0,-2 0,-2 -2,0 -2,0 0,2 0,2 -48,0 -48,0 0,-2 0,-2 -2,0 -2,0 0,2 0,2 -2,0 -2,0 0,2 0,2 -2,0 -2,0 0,2 0,2 -8,0 -7.999997,0 0,-2 z m 11.999997,-10 0,-4 -4,0 -3.999997,0 0,4 0,4 3.999997,0 4,0 0,-4 z m 136,0 0,-4 -4,0 -4,0 0,4 0,4 4,0 4,0 0,-4 z m -60,-32 0,-8 2,0 2,0 0,8 0,8 16,0 16,0 0,-2 0,-2 2,0 2,0 0,-2 0,-2 2,0 2,0 0,-4 0,-4 2,0 2,0 0,4 0,4 2,0 2,0 0,2 0,2 2,0 2,0 0,-6 0,-6 -2,0 -2,0 0,-4 0,-4 -2,0 -2,0 0,-2 0,-2 -2,0 -2,0 0,-4 0,-4 -2,0 -2,0 0,-2 0,-2 -4,0 -4,0 0,6 0,6 2,0 2,0 0,2 0,2 2,0 2,0 0,2 0,2 -4,0 -4,0 0,-2 0,-2 -12,0 -12,0 0,4 0,4 -2,0 -2,0 0,-4 0,-4 -10,0 -10,0 0,2 0,2 -4,0 -4,0 0,2 0,2 -4,0 -4,0 0,-2 0,-2 2,0 2,0 0,-2 0,-2 -2,0 -2,0 0,-2 0,-2 -2,0 -2,0 0,-8 0,-8 -4,0 -4,0 0,2 0,2 -2,0 -2,0 0,2 0,2 -6,0 -6,0 0,4 0,4 -2,0 -2,0 0,8 0,8 2,0 2,0 0,2 0,2 2,0 2,0 0,2 0,2 4,0 4,0 0,-2 0,-2 4,0 4,0 0,2 0,2 2,0 2,0 0,2 0,2 18,0 18,0 0,-8 z m -40,-2 0,-2 2,0 2,0 0,-2 0,-2 2,0 2,0 0,4 0,4 -4,0 -4,0 0,-2 z m 80,-8 0,-2 2,0 2,0 0,2 0,2 -2,0 -2,0 0,-2 z"
         id="path3234"
         style="fill:#7fc476" />
      <path
         d="m 95.342773,478.74124 0,-2 -2,0 -2,0 0,-2 0,-2 -2,0 -2,0 0,-2 0,-2 -2,0 -2,0 0,2 0,2 -2,0 -2,0 0,-2 0,-2 -2,0 -2,0 0,-2 0,-2 -2,0 -2,0 0,-2 0,-2 -2,0 -2,0 0,-16 0,-16 2,0 2,0 0,-4 0,-4 4,0 4,0 0,-2 0,-2 4,0 4,0 0,-2 0,-2 6,0 6,0 0,-2 0,-2 11.999997,0 12,0 0,-2 0,-2 6,0 6,0 0,-2 0,-2 2,0 2,0 0,-2 0,-2 6,0 6,0 0,-2 0,-2 10,0 10,0 0,-2 0,-2 12,0 12,0 0,2 0,2 6,0 6,0 0,2 0,2 4,0 4,0 0,2 0,2 4,0 4,0 0,2 0,2 2,0 2,0 0,2 0,2 14,0 14,0 0,2 0,2 2,0 2,0 0,2 0,2 2,0 2,0 0,2 0,2 2,0 2,0 0,2 0,2 2,0 2,0 0,6 0,6 2,0 2,0 0,10 0,10 -2,0 -2,0 0,2 0,2 -2,0 -2,0 0,2 0,2 -2,0 -2,0 0,2 0,2 -4,0 -4,0 0,2 0,2 -2,0 -2,0 0,2 0,2 -2,0 -2,0 0,2 0,2 -8,0 -8,0 0,-2 0,-2 -2,0 -2,0 0,-2 0,-2 -2,0 -2,0 0,-2 0,-2 -2,0 -2,0 0,2 0,2 -48,0 -48,0 0,-2 0,-2 -2,0 -2,0 0,2 0,2 -2,0 -2,0 0,2 0,2 -2,0 -2,0 0,2 0,2 -8,0 -7.999997,0 0,-2 z m 11.999997,-10 0,-4 -4,0 -3.999997,0 0,4 0,4 3.999997,0 4,0 0,-4 z m 136,0 0,-4 -4,0 -4,0 0,4 0,4 4,0 4,0 0,-4 z m -60,-32 0,-8 2,0 2,0 0,8 0,8 16,0 16,0 0,-2 0,-2 2,0 2,0 0,-2 0,-2 2,0 2,0 0,-4 0,-4 2,0 2,0 0,4 0,4 2,0 2,0 0,2 0,2 2,0 2,0 0,-6 0,-6 -2,0 -2,0 0,-4 0,-4 8,0 8,0 0,2 0,2 6,0 6,0 0,-2 0,-2 -2,0 -2,0 0,-2 0,-2 -2,0 -2,0 0,-2 0,-2 -12,0 -12,0 0,2 0,2 -2,0 -2,0 0,-4 0,-4 -2,0 -2,0 0,-2 0,-2 -4,0 -4,0 0,6 0,6 2,0 2,0 0,2 0,2 2,0 2,0 0,2 0,2 -4,0 -4,0 0,-2 0,-2 -12,0 -12,0 0,4 0,4 -2,0 -2,0 0,-4 0,-4 -10,0 -10,0 0,2 0,2 -4,0 -4,0 0,2 0,2 -4,0 -4,0 0,-2 0,-2 2,0 2,0 0,-2 0,-2 -2,0 -2,0 0,-2 0,-2 -2,0 -2,0 0,-8 0,-8 -4,0 -4,0 0,2 0,2 -2,0 -2,0 0,2 0,2 -6,0 -6,0 0,4 0,4 -2,0 -2,0 0,-2 0,-2 -10,0 -9.999997,0 0,2 0,2 -6,0 -6,0 0,2 0,2 -4,0 -4,0 0,2 0,2 -2,0 -2,0 0,2 0,2 -2,0 -2,0 0,4 0,4 2,0 2,0 0,-2 0,-2 2,0 2,0 0,-2 0,-2 4,0 4,0 0,-2 0,-2 4,0 4,0 0,-2 0,-2 9.999997,0 10,0 0,-2 0,-2 2,0 2,0 0,8 0,8 2,0 2,0 0,2 0,2 2,0 2,0 0,2 0,2 4,0 4,0 0,-2 0,-2 4,0 4,0 0,2 0,2 2,0 2,0 0,2 0,2 18,0 18,0 0,-8 z m -40,-2 0,-2 2,0 2,0 0,-2 0,-2 2,0 2,0 0,4 0,4 -4,0 -4,0 0,-2 z m 80,-8 0,-2 2,0 2,0 0,2 0,2 -2,0 -2,0 0,-2 z m 8,-8 0,-2 2,0 2,0 0,2 0,2 -2,0 -2,0 0,-2 z m -76,-12 0,-2 2,0 2,0 0,-2 0,-2 18,0 18,0 0,2 0,2 6,0 6,0 0,2 0,2 2,0 2,0 0,-4 0,-4 -2,0 -2,0 0,-2 0,-2 -6,0 -6,0 0,-2 0,-2 -12,0 -12,0 0,2 0,2 -10,0 -10,0 0,6 0,6 2,0 2,0 0,-2 z"
         id="path3232"
         style="fill:#65b657" />
      <path
         d="m 95.342773,478.74124 0,-2 -2,0 -2,0 0,-2 0,-2 -2,0 -2,0 0,-2 0,-2 -2,0 -2,0 0,2 0,2 -2,0 -2,0 0,-2 0,-2 -2,0 -2,0 0,-2 0,-2 -2,0 -2,0 0,-2 0,-2 -2,0 -2,0 0,-16 0,-16 2,0 2,0 0,-4 0,-4 4,0 4,0 0,-2 0,-2 4,0 4,0 0,-2 0,-2 6,0 6,0 0,-2 0,-2 11.999997,0 12,0 0,-2 0,-2 6,0 6,0 0,-2 0,-2 2,0 2,0 0,-2 0,-2 6,0 6,0 0,-2 0,-2 10,0 10,0 0,-2 0,-2 12,0 12,0 0,2 0,2 6,0 6,0 0,2 0,2 4,0 4,0 0,2 0,2 4,0 4,0 0,2 0,2 2,0 2,0 0,2 0,2 14,0 14,0 0,2 0,2 2,0 2,0 0,2 0,2 2,0 2,0 0,2 0,2 2,0 2,0 0,2 0,2 2,0 2,0 0,6 0,6 2,0 2,0 0,10 0,10 -2,0 -2,0 0,2 0,2 -2,0 -2,0 0,2 0,2 -2,0 -2,0 0,2 0,2 -4,0 -4,0 0,2 0,2 -2,0 -2,0 0,2 0,2 -2,0 -2,0 0,2 0,2 -8,0 -8,0 0,-2 0,-2 -2,0 -2,0 0,-2 0,-2 -2,0 -2,0 0,-2 0,-2 -2,0 -2,0 0,2 0,2 -48,0 -48,0 0,-2 0,-2 -2,0 -2,0 0,2 0,2 -2,0 -2,0 0,2 0,2 -2,0 -2,0 0,2 0,2 -8,0 -7.999997,0 0,-2 z m 11.999997,-10 0,-4 -4,0 -3.999997,0 0,4 0,4 3.999997,0 4,0 0,-4 z m 136,0 0,-4 -4,0 -4,0 0,4 0,4 4,0 4,0 0,-4 z m -151.999997,-6 0,-2 17.999997,0 18,0 0,-2 0,-2 2,0 2,0 0,2 0,2 22,0 22,0 0,-2 0,-2 2,0 2,0 0,2 0,2 24,0 24,0 0,-2 0,-2 2,0 2,0 0,2 0,2 18,0 18,0 0,-2 0,-2 2,0 2,0 0,-10 0,-10 -2,0 -2,0 0,2 0,2 -4,0 -4,0 0,2 0,2 -12,0 -12,0 0,-2 0,-2 2,0 2,0 0,-6 0,-6 2,0 2,0 0,4 0,4 8,0 8,0 0,-2 0,-2 2,0 2,0 0,-2 0,-2 2,0 2,0 0,-2 0,-2 -2,0 -2,0 0,-2 0,-2 -2,0 -2,0 0,-2 0,-2 -2,0 -2,0 0,-2 0,-2 -12,0 -12,0 0,2 0,2 -2,0 -2,0 0,-4 0,-4 -2,0 -2,0 0,-2 0,-2 -4,0 -4,0 0,6 0,6 2,0 2,0 0,2 0,2 2,0 2,0 0,2 0,2 -4,0 -4,0 0,-2 0,-2 -12,0 -12,0 0,4 0,4 -2,0 -2,0 0,-4 0,-4 -10,0 -10,0 0,2 0,2 -4,0 -4,0 0,2 0,2 -4,0 -4,0 0,-2 0,-2 2,0 2,0 0,-2 0,-2 -2,0 -2,0 0,-2 0,-2 6,0 6,0 0,-2 0,-2 24,0 24,0 0,-6 0,-6 -2,0 -2,0 0,-2 0,-2 -6,0 -6,0 0,-2 0,-2 -12,0 -12,0 0,2 0,2 -10,0 -10,0 0,10 0,10 -2,0 -2,0 0,-8 0,-8 -4,0 -4,0 0,2 0,2 -2,0 -2,0 0,2 0,2 -6,0 -6,0 0,4 0,4 -2,0 -2,0 0,-2 0,-2 -10,0 -9.999997,0 0,2 0,2 -6,0 -6,0 0,2 0,2 -4,0 -4,0 0,2 0,2 -2,0 -2,0 0,2 0,2 -2,0 -2,0 0,8 0,8 2,0 2,0 0,2 0,2 -2,0 -2,0 0,6 0,6 4,0 4,0 0,2 0,2 6,0 6,0 0,-2 z m -12,-8 0,-2 -2,0 -2,0 0,-2 0,-2 14,0 13.999997,0 0,-2 0,-2 8,0 8,0 0,-2 0,-2 2,0 2,0 0,-2 0,-2 -2,0 -2,0 0,-2 0,-2 -2,0 -2,0 0,-8 0,-8 2,0 2,0 0,8 0,8 2,0 2,0 0,2 0,2 2,0 2,0 0,2 0,2 4,0 4,0 0,-2 0,-2 4,0 4,0 0,-2 0,-2 2,0 2,0 0,-2 0,-2 2,0 2,0 0,4 0,4 -4,0 -4,0 0,2 0,2 2,0 2,0 0,2 0,2 18,0 18,0 0,-8 0,-8 2,0 2,0 0,8 0,8 16,0 16,0 0,-2 0,-2 2,0 2,0 0,-2 0,-2 2,0 2,0 0,-4 0,-4 -2,0 -2,0 0,-2 0,-2 2,0 2,0 0,2 0,2 2,0 2,0 0,4 0,4 2,0 2,0 0,2 0,2 -2,0 -2,0 0,-2 0,-2 -2,0 -2,0 0,2 0,2 -2,0 -2,0 0,2 0,2 6,0 6,0 0,2 0,2 -4,0 -4,0 0,4 0,4 -2,0 -2,0 0,-4 0,-4 -20,0 -20,0 0,4 0,4 -2,0 -2,0 0,-4 0,-4 -18,0 -18,0 0,2 0,2 -2,0 -2,0 0,-2 0,-2 -2,0 -2,0 0,4 0,4 -2,0 -2,0 0,-2 0,-2 -10,0 -10,0 0,2 0,2 -15.999997,0 -16,0 0,-2 z m 63.999997,-10 0,-4 -2,0 -2,0 0,4 0,4 2,0 2,0 0,-4 z m 20,10 0,-2 4,0 4,0 0,2 0,2 -4,0 -4,0 0,-2 z m 48,0 0,-2 4,0 4,0 0,2 0,2 -4,0 -4,0 0,-2 z m -131.999997,-24 0,-2 2,0 2,0 0,2 0,2 -2,0 -2,0 0,-2 z m 8,-4 0,-2 2,0 2,0 0,2 0,2 -2,0 -2,0 0,-2 z m 147.999997,-2 0,-4 -2,0 -2,0 0,-2 0,-2 2,0 2,0 0,2 0,2 2,0 2,0 0,4 0,4 -2,0 -2,0 0,-4 z m -139.999997,-2 0,-2 5.999997,0 6,0 0,2 0,2 -6,0 -5.999997,0 0,-2 z"
         id="path3230"
         style="fill:#54994b" />
      <path
         d="m 95.342773,478.74124 0,-2 -2,0 -2,0 0,-2 0,-2 -2,0 -2,0 0,-2 0,-2 -2,0 -2,0 0,2 0,2 -2,0 -2,0 0,-2 0,-2 -2,0 -2,0 0,-2 0,-2 -2,0 -2,0 0,-2 0,-2 -2,0 -2,0 0,-16 0,-16 2,0 2,0 0,-4 0,-4 4,0 4,0 0,-2 0,-2 4,0 4,0 0,-2 0,-2 6,0 6,0 0,-2 0,-2 11.999997,0 12,0 0,-2 0,-2 6,0 6,0 0,-2 0,-2 2,0 2,0 0,-2 0,-2 6,0 6,0 0,-2 0,-2 10,0 10,0 0,-2 0,-2 12,0 12,0 0,2 0,2 6,0 6,0 0,2 0,2 4,0 4,0 0,2 0,2 4,0 4,0 0,2 0,2 2,0 2,0 0,2 0,2 14,0 14,0 0,2 0,2 2,0 2,0 0,2 0,2 2,0 2,0 0,2 0,2 2,0 2,0 0,2 0,2 2,0 2,0 0,6 0,6 2,0 2,0 0,10 0,10 -2,0 -2,0 0,2 0,2 -2,0 -2,0 0,2 0,2 -2,0 -2,0 0,2 0,2 -4,0 -4,0 0,2 0,2 -2,0 -2,0 0,2 0,2 -2,0 -2,0 0,2 0,2 -8,0 -8,0 0,-2 0,-2 -2,0 -2,0 0,-2 0,-2 -2,0 -2,0 0,-2 0,-2 -2,0 -2,0 0,2 0,2 -48,0 -48,0 0,-2 0,-2 -2,0 -2,0 0,2 0,2 -2,0 -2,0 0,2 0,2 -2,0 -2,0 0,2 0,2 -8,0 -7.999997,0 0,-2 z m 11.999997,-10 0,-4 -4,0 -3.999997,0 0,4 0,4 3.999997,0 4,0 0,-4 z m 136,0 0,-4 -4,0 -4,0 0,4 0,4 4,0 4,0 0,-4 z m -151.999997,-6 0,-2 17.999997,0 18,0 0,-2 0,-2 2,0 2,0 0,2 0,2 22,0 22,0 0,-2 0,-2 2,0 2,0 0,2 0,2 24,0 24,0 0,-2 0,-2 2,0 2,0 0,2 0,2 18,0 18,0 0,-2 0,-2 2,0 2,0 0,-10 0,-10 -2,0 -2,0 0,2 0,2 -4,0 -4,0 0,2 0,2 -12,0 -12,0 0,-2 0,-2 2,0 2,0 0,-6 0,-6 2,0 2,0 0,4 0,4 8,0 8,0 0,-2 0,-2 2,0 2,0 0,-2 0,-2 2,0 2,0 0,-2 0,-2 -2,0 -2,0 0,-2 0,-2 -2,0 -2,0 0,-2 0,-2 -2,0 -2,0 0,-2 0,-2 -12,0 -12,0 0,2 0,2 -2,0 -2,0 0,-4 0,-4 -2,0 -2,0 0,-2 0,-2 -4,0 -4,0 0,6 0,6 2,0 2,0 0,2 0,2 2,0 2,0 0,2 0,2 -4,0 -4,0 0,-2 0,-2 -12,0 -12,0 0,4 0,4 -2,0 -2,0 0,-4 0,-4 -10,0 -10,0 0,2 0,2 -4,0 -4,0 0,2 0,2 -4,0 -4,0 0,-2 0,-2 2,0 2,0 0,-2 0,-2 -2,0 -2,0 0,-2 0,-2 6,0 6,0 0,-2 0,-2 24,0 24,0 0,-6 0,-6 -2,0 -2,0 0,-2 0,-2 -6,0 -6,0 0,-2 0,-2 -12,0 -12,0 0,2 0,2 -10,0 -10,0 0,10 0,10 -2,0 -2,0 0,-8 0,-8 -4,0 -4,0 0,2 0,2 -2,0 -2,0 0,2 0,2 -6,0 -6,0 0,4 0,4 -2,0 -2,0 0,-2 0,-2 -10,0 -9.999997,0 0,2 0,2 -6,0 -6,0 0,2 0,2 -4,0 -4,0 0,2 0,2 -2,0 -2,0 0,2 0,2 -2,0 -2,0 0,8 0,8 2,0 2,0 0,2 0,2 -2,0 -2,0 0,6 0,6 4,0 4,0 0,2 0,2 6,0 6,0 0,-2 z m -12,-8 0,-2 -2,0 -2,0 0,-2 0,-2 14,0 13.999997,0 0,-2 0,-2 8,0 8,0 0,-2 0,-2 2,0 2,0 0,-2 0,-2 -2,0 -2,0 0,-2 0,-2 -2,0 -2,0 0,-8 0,-8 2,0 2,0 0,8 0,8 2,0 2,0 0,2 0,2 2,0 2,0 0,2 0,2 4,0 4,0 0,-2 0,-2 4,0 4,0 0,-2 0,-2 2,0 2,0 0,-2 0,-2 2,0 2,0 0,4 0,4 -4,0 -4,0 0,2 0,2 2,0 2,0 0,2 0,2 18,0 18,0 0,-8 0,-8 2,0 2,0 0,8 0,8 16,0 16,0 0,-2 0,-2 2,0 2,0 0,-2 0,-2 2,0 2,0 0,-4 0,-4 -2,0 -2,0 0,-2 0,-2 2,0 2,0 0,2 0,2 2,0 2,0 0,4 0,4 2,0 2,0 0,2 0,2 -2,0 -2,0 0,-2 0,-2 -2,0 -2,0 0,2 0,2 -2,0 -2,0 0,2 0,2 6,0 6,0 0,2 0,2 -4,0 -4,0 0,4 0,4 -2,0 -2,0 0,-4 0,-4 -20,0 -20,0 0,4 0,4 -2,0 -2,0 0,-4 0,-4 -18,0 -18,0 0,2 0,2 -2,0 -2,0 0,-2 0,-2 -2,0 -2,0 0,4 0,4 -2,0 -2,0 0,-2 0,-2 -10,0 -10,0 0,2 0,2 -15.999997,0 -16,0 0,-2 z m 63.999997,-10 0,-4 -2,0 -2,0 0,4 0,4 2,0 2,0 0,-4 z m 20,10 0,-2 4,0 4,0 0,2 0,2 -4,0 -4,0 0,-2 z m 48,0 0,-2 4,0 4,0 0,2 0,2 -4,0 -4,0 0,-2 z m 24,-30 0,-4 -2,0 -2,0 0,-2 0,-2 2,0 2,0 0,2 0,2 2,0 2,0 0,4 0,4 -2,0 -2,0 0,-4 z"
         id="path3228"
         style="fill:#409831" />
      <path
         d="m 95.342773,478.74124 0,-2 -2,0 -2,0 0,-2 0,-2 -2,0 -2,0 0,-2 0,-2 -2,0 -2,0 0,2 0,2 -2,0 -2,0 0,-2 0,-2 -2,0 -2,0 0,-2 0,-2 -2,0 -2,0 0,-2 0,-2 -2,0 -2,0 0,-16 0,-16 2,0 2,0 0,-4 0,-4 4,0 4,0 0,-2 0,-2 4,0 4,0 0,-2 0,-2 6,0 6,0 0,-2 0,-2 11.999997,0 12,0 0,-2 0,-2 6,0 6,0 0,-2 0,-2 2,0 2,0 0,-2 0,-2 6,0 6,0 0,-2 0,-2 10,0 10,0 0,-2 0,-2 12,0 12,0 0,2 0,2 6,0 6,0 0,2 0,2 4,0 4,0 0,2 0,2 4,0 4,0 0,2 0,2 2,0 2,0 0,2 0,2 14,0 14,0 0,2 0,2 2,0 2,0 0,2 0,2 2,0 2,0 0,2 0,2 2,0 2,0 0,2 0,2 2,0 2,0 0,6 0,6 2,0 2,0 0,10 0,10 -2,0 -2,0 0,2 0,2 -2,0 -2,0 0,2 0,2 -2,0 -2,0 0,2 0,2 -4,0 -4,0 0,2 0,2 -2,0 -2,0 0,2 0,2 -2,0 -2,0 0,2 0,2 -8,0 -8,0 0,-2 0,-2 -2,0 -2,0 0,-2 0,-2 -2,0 -2,0 0,-2 0,-2 -2,0 -2,0 0,2 0,2 -48,0 -48,0 0,-2 0,-2 -2,0 -2,0 0,2 0,2 -2,0 -2,0 0,2 0,2 -2,0 -2,0 0,2 0,2 -8,0 -7.999997,0 0,-2 z m 11.999997,-10 0,-4 -4,0 -3.999997,0 0,4 0,4 3.999997,0 4,0 0,-4 z m 136,0 0,-4 -4,0 -4,0 0,4 0,4 4,0 4,0 0,-4 z m -151.999997,-6 0,-2 17.999997,0 18,0 0,-2 0,-2 2,0 2,0 0,2 0,2 22,0 22,0 0,-2 0,-2 2,0 2,0 0,2 0,2 24,0 24,0 0,-2 0,-2 2,0 2,0 0,2 0,2 18,0 18,0 0,-2 0,-2 2,0 2,0 0,-10 0,-10 -2,0 -2,0 0,-6 0,-6 -2,0 -2,0 0,-2 0,-2 -2,0 -2,0 0,-2 0,-2 -2,0 -2,0 0,-2 0,-2 -12,0 -12,0 0,2 0,2 -2,0 -2,0 0,-4 0,-4 -2,0 -2,0 0,-2 0,-2 -4,0 -4,0 0,6 0,6 2,0 2,0 0,2 0,2 2,0 2,0 0,2 0,2 -4,0 -4,0 0,-2 0,-2 -12,0 -12,0 0,4 0,4 -2,0 -2,0 0,-4 0,-4 -10,0 -10,0 0,-2 0,-2 22,0 22,0 0,-8 0,-8 -2,0 -2,0 0,-2 0,-2 -6,0 -6,0 0,-2 0,-2 -12,0 -12,0 0,2 0,2 -10,0 -10,0 0,10 0,10 -2,0 -2,0 0,-8 0,-8 -4,0 -4,0 0,2 0,2 -2,0 -2,0 0,2 0,2 -6,0 -6,0 0,4 0,4 -2,0 -2,0 0,-2 0,-2 -10,0 -9.999997,0 0,2 0,2 -6,0 -6,0 0,2 0,2 -4,0 -4,0 0,2 0,2 -2,0 -2,0 0,2 0,2 -2,0 -2,0 0,8 0,8 2,0 2,0 0,2 0,2 -2,0 -2,0 0,6 0,6 4,0 4,0 0,2 0,2 6,0 6,0 0,-2 z m -12,-8 0,-2 -2,0 -2,0 0,-2 0,-2 2,0 2,0 0,2 0,2 16,0 15.999997,0 0,-2 0,-2 12,0 12,0 0,-2 0,-2 -4,0 -4,0 0,-2 0,-2 -2,0 -2,0 0,-2 0,-2 -2,0 -2,0 0,-2 0,-2 -2,0 -2,0 0,-8 0,-8 2,0 2,0 0,8 0,8 2,0 2,0 0,2 0,2 2,0 2,0 0,2 0,2 4,0 4,0 0,-2 0,-2 4,0 4,0 0,-2 0,-2 2,0 2,0 0,-2 0,-2 2,0 2,0 0,-2 0,-2 2,0 2,0 0,-2 0,-2 -2,0 -2,0 0,-2 0,-2 2,0 2,0 0,2 0,2 6,0 6,0 0,2 0,2 -4,0 -4,0 0,2 0,2 -4,0 -4,0 0,4 0,4 -4,0 -4,0 0,2 0,2 2,0 2,0 0,2 0,2 18,0 18,0 0,-8 0,-8 2,0 2,0 0,8 0,8 16,0 16,0 0,-2 0,-2 2,0 2,0 0,-2 0,-2 2,0 2,0 0,-4 0,-4 -2,0 -2,0 0,-2 0,-2 2,0 2,0 0,2 0,2 2,0 2,0 0,4 0,4 2,0 2,0 0,2 0,2 2,0 2,0 0,-6 0,-6 -2,0 -2,0 0,-4 0,-4 -2,0 -2,0 0,-2 0,-2 2,0 2,0 0,2 0,2 2,0 2,0 0,4 0,4 2,0 2,0 0,6 0,6 8,0 8,0 0,-2 0,-2 4,0 4,0 0,2 0,2 -4,0 -4,0 0,2 0,2 -12,0 -12,0 0,2 0,2 -4,0 -4,0 0,4 0,4 -2,0 -2,0 0,-4 0,-4 -20,0 -20,0 0,4 0,4 -2,0 -2,0 0,-4 0,-4 -18,0 -18,0 0,2 0,2 -2,0 -2,0 0,-2 0,-2 -2,0 -2,0 0,4 0,4 -2,0 -2,0 0,-2 0,-2 -10,0 -10,0 0,2 0,2 -15.999997,0 -16,0 0,-2 z m 63.999997,-10 0,-4 -2,0 -2,0 0,4 0,4 2,0 2,0 0,-4 z m 92,-2 0,-2 -2,0 -2,0 0,-2 0,-2 -2,0 -2,0 0,2 0,2 -2,0 -2,0 0,2 0,2 6,0 6,0 0,-2 z m -72,12 0,-2 4,0 4,0 0,2 0,2 -4,0 -4,0 0,-2 z m 48,0 0,-2 4,0 4,0 0,2 0,2 -4,0 -4,0 0,-2 z"
         id="path3226"
         style="fill:#337927" />
      <path
         d="m 95.342773,478.74124 0,-2 -2,0 -2,0 0,-2 0,-2 -2,0 -2,0 0,-2 0,-2 -2,0 -2,0 0,2 0,2 -2,0 -2,0 0,-2 0,-2 -2,0 -2,0 0,-2 0,-2 -2,0 -2,0 0,-2 0,-2 -2,0 -2,0 0,-16 0,-16 2,0 2,0 0,-4 0,-4 4,0 4,0 0,-2 0,-2 4,0 4,0 0,-2 0,-2 6,0 6,0 0,-2 0,-2 11.999997,0 12,0 0,-2 0,-2 6,0 6,0 0,-2 0,-2 2,0 2,0 0,-2 0,-2 6,0 6,0 0,-2 0,-2 10,0 10,0 0,-2 0,-2 12,0 12,0 0,2 0,2 6,0 6,0 0,2 0,2 4,0 4,0 0,2 0,2 4,0 4,0 0,2 0,2 2,0 2,0 0,2 0,2 14,0 14,0 0,2 0,2 2,0 2,0 0,2 0,2 2,0 2,0 0,2 0,2 2,0 2,0 0,2 0,2 2,0 2,0 0,6 0,6 2,0 2,0 0,10 0,10 -2,0 -2,0 0,2 0,2 -2,0 -2,0 0,2 0,2 -2,0 -2,0 0,2 0,2 -4,0 -4,0 0,2 0,2 -2,0 -2,0 0,2 0,2 -2,0 -2,0 0,2 0,2 -8,0 -8,0 0,-2 0,-2 -2,0 -2,0 0,-2 0,-2 -2,0 -2,0 0,-2 0,-2 -2,0 -2,0 0,2 0,2 -48,0 -48,0 0,-2 0,-2 -2,0 -2,0 0,2 0,2 -2,0 -2,0 0,2 0,2 -2,0 -2,0 0,2 0,2 -8,0 -7.999997,0 0,-2 z m 11.999997,-10 0,-4 -4,0 -3.999997,0 0,4 0,4 3.999997,0 4,0 0,-4 z m 136,0 0,-4 -4,0 -4,0 0,4 0,4 4,0 4,0 0,-4 z m -151.999997,-6 0,-2 11.999997,0 12,0 0,2 0,2 6,0 6,0 0,-4 0,-4 2,0 2,0 0,4 0,4 22,0 22,0 0,-4 0,-4 2,0 2,0 0,4 0,4 24,0 24,0 0,-4 0,-4 2,0 2,0 0,2 0,2 10,0 10,0 0,2 0,2 6,0 6,0 0,-2 0,-2 2,0 2,0 0,-2 0,-2 2,0 2,0 0,-10 0,-10 -2,0 -2,0 0,-6 0,-6 -2,0 -2,0 0,-2 0,-2 -2,0 -2,0 0,-2 0,-2 -2,0 -2,0 0,-2 0,-2 -12,0 -12,0 0,2 0,2 -2,0 -2,0 0,-4 0,-4 -2,0 -2,0 0,-2 0,-2 -4,0 -4,0 0,6 0,6 2,0 2,0 0,2 0,2 2,0 2,0 0,2 0,2 -4,0 -4,0 0,-2 0,-2 -12,0 -12,0 0,4 0,4 -2,0 -2,0 0,-4 0,-4 -10,0 -10,0 0,-2 0,-2 22,0 22,0 0,-8 0,-8 -2,0 -2,0 0,-2 0,-2 -6,0 -6,0 0,-2 0,-2 -12,0 -12,0 0,2 0,2 -10,0 -10,0 0,10 0,10 -2,0 -2,0 0,-8 0,-8 -4,0 -4,0 0,2 0,2 -2,0 -2,0 0,2 0,2 -6,0 -6,0 0,4 0,4 -2,0 -2,0 0,-2 0,-2 -10,0 -9.999997,0 0,2 0,2 -6,0 -6,0 0,2 0,2 -4,0 -4,0 0,2 0,2 -2,0 -2,0 0,2 0,2 -2,0 -2,0 0,8 0,8 2,0 2,0 0,2 0,2 -2,0 -2,0 0,6 0,6 2,0 2,0 0,2 0,2 8,0 8,0 0,-2 z m -12,-8 0,-2 -2,0 -2,0 0,-2 0,-2 2,0 2,0 0,2 0,2 16,0 15.999997,0 0,-2 0,-2 12,0 12,0 0,-2 0,-2 -4,0 -4,0 0,-2 0,-2 -2,0 -2,0 0,-2 0,-2 -2,0 -2,0 0,-2 0,-2 -2,0 -2,0 0,-8 0,-8 2,0 2,0 0,8 0,8 2,0 2,0 0,2 0,2 2,0 2,0 0,2 0,2 4,0 4,0 0,-2 0,-2 4,0 4,0 0,-2 0,-2 2,0 2,0 0,-2 0,-2 2,0 2,0 0,-2 0,-2 2,0 2,0 0,-2 0,-2 -2,0 -2,0 0,-2 0,-2 2,0 2,0 0,2 0,2 6,0 6,0 0,2 0,2 -4,0 -4,0 0,2 0,2 -4,0 -4,0 0,4 0,4 -4,0 -4,0 0,2 0,2 2,0 2,0 0,2 0,2 18,0 18,0 0,-8 0,-8 2,0 2,0 0,8 0,8 16,0 16,0 0,-2 0,-2 2,0 2,0 0,-2 0,-2 2,0 2,0 0,-4 0,-4 -2,0 -2,0 0,-2 0,-2 2,0 2,0 0,2 0,2 2,0 2,0 0,4 0,4 2,0 2,0 0,2 0,2 2,0 2,0 0,-6 0,-6 -2,0 -2,0 0,-4 0,-4 -2,0 -2,0 0,-2 0,-2 2,0 2,0 0,2 0,2 2,0 2,0 0,4 0,4 2,0 2,0 0,6 0,6 8,0 8,0 0,-2 0,-2 4,0 4,0 0,2 0,2 -4,0 -4,0 0,2 0,2 -12,0 -12,0 0,2 0,2 -4,0 -4,0 0,4 0,4 -2,0 -2,0 0,-4 0,-4 -20,0 -20,0 0,4 0,4 -2,0 -2,0 0,-4 0,-4 -18,0 -18,0 0,2 0,2 -2,0 -2,0 0,-2 0,-2 -2,0 -2,0 0,4 0,4 -2,0 -2,0 0,-2 0,-2 -10,0 -10,0 0,2 0,2 -15.999997,0 -16,0 0,-2 z m 63.999997,-10 0,-4 -2,0 -2,0 0,4 0,4 2,0 2,0 0,-4 z m 92,-2 0,-2 -2,0 -2,0 0,-2 0,-2 -2,0 -2,0 0,2 0,2 -2,0 -2,0 0,2 0,2 6,0 6,0 0,-2 z m -72,12 0,-2 4,0 4,0 0,2 0,2 -4,0 -4,0 0,-2 z m 48,0 0,-2 4,0 4,0 0,2 0,2 -4,0 -4,0 0,-2 z"
         id="path3224"
         style="fill:#0a5b00" />
      <path
         d="m 95.342773,478.74124 0,-2 -2,0 -2,0 0,-2 0,-2 -2,0 -2,0 0,-2 0,-2 -2,0 -2,0 0,2 0,2 -2,0 -2,0 0,-2 0,-2 -2,0 -2,0 0,-2 0,-2 -2,0 -2,0 0,-2 0,-2 -2,0 -2,0 0,-16 0,-16 2,0 2,0 0,-4 0,-4 4,0 4,0 0,-2 0,-2 4,0 4,0 0,-2 0,-2 6,0 6,0 0,-2 0,-2 11.999997,0 12,0 0,-2 0,-2 6,0 6,0 0,-2 0,-2 2,0 2,0 0,-2 0,-2 6,0 6,0 0,-2 0,-2 10,0 10,0 0,-2 0,-2 12,0 12,0 0,2 0,2 6,0 6,0 0,2 0,2 4,0 4,0 0,2 0,2 4,0 4,0 0,2 0,2 2,0 2,0 0,2 0,2 14,0 14,0 0,2 0,2 2,0 2,0 0,2 0,2 2,0 2,0 0,2 0,2 2,0 2,0 0,2 0,2 2,0 2,0 0,6 0,6 2,0 2,0 0,10 0,10 -2,0 -2,0 0,2 0,2 -2,0 -2,0 0,2 0,2 -2,0 -2,0 0,2 0,2 -4,0 -4,0 0,2 0,2 -2,0 -2,0 0,2 0,2 -2,0 -2,0 0,2 0,2 -8,0 -8,0 0,-2 0,-2 -2,0 -2,0 0,-2 0,-2 -2,0 -2,0 0,-2 0,-2 -2,0 -2,0 0,2 0,2 -48,0 -48,0 0,-2 0,-2 -2,0 -2,0 0,2 0,2 -2,0 -2,0 0,2 0,2 -2,0 -2,0 0,2 0,2 -8,0 -7.999997,0 0,-2 z m 11.999997,-10 0,-4 -4,0 -3.999997,0 0,4 0,4 3.999997,0 4,0 0,-4 z m 136,0 0,-4 -4,0 -4,0 0,4 0,4 4,0 4,0 0,-4 z m -159.999997,-2 0,-2 4,0 4,0 0,-2 0,-2 11.999997,0 12,0 0,2 0,2 4,0 4,0 0,2 0,2 2,0 2,0 0,-6 0,-6 2,0 2,0 0,6 0,6 22,0 22,0 0,-6 0,-6 2,0 2,0 0,6 0,6 20,0 20,0 0,-2 0,-2 4,0 4,0 0,-4 0,-4 2,0 2,0 0,2 0,2 10,0 10,0 0,2 0,2 6,0 6,0 0,-2 0,-2 2,0 2,0 0,-2 0,-2 2,0 2,0 0,-10 0,-10 -2,0 -2,0 0,-6 0,-6 -2,0 -2,0 0,-2 0,-2 -2,0 -2,0 0,-2 0,-2 -2,0 -2,0 0,-2 0,-2 -12,0 -12,0 0,2 0,2 -2,0 -2,0 0,-4 0,-4 -2,0 -2,0 0,-2 0,-2 -4,0 -4,0 0,6 0,6 2,0 2,0 0,2 0,2 2,0 2,0 0,2 0,2 -4,0 -4,0 0,-2 0,-2 -12,0 -12,0 0,4 0,4 -2,0 -2,0 0,-4 0,-4 -10,0 -10,0 0,-2 0,-2 22,0 22,0 0,-8 0,-8 -2,0 -2,0 0,-2 0,-2 -6,0 -6,0 0,-2 0,-2 -12,0 -12,0 0,2 0,2 -10,0 -10,0 0,10 0,10 -2,0 -2,0 0,-8 0,-8 -4,0 -4,0 0,2 0,2 -2,0 -2,0 0,2 0,2 -6,0 -6,0 0,4 0,4 -2,0 -2,0 0,-2 0,-2 -10,0 -9.999997,0 0,2 0,2 -6,0 -6,0 0,2 0,2 -4,0 -4,0 0,2 0,2 -2,0 -2,0 0,2 0,2 -2,0 -2,0 0,8 0,8 2,0 2,0 0,2 0,2 -2,0 -2,0 0,6 0,6 2,0 2,0 0,2 0,2 2,0 2,0 0,2 0,2 2,0 2,0 0,-2 z m -4,-12 0,-2 -2,0 -2,0 0,-2 0,-2 2,0 2,0 0,2 0,2 16,0 15.999997,0 0,-2 0,-2 12,0 12,0 0,-2 0,-2 -4,0 -4,0 0,-2 0,-2 -2,0 -2,0 0,-2 0,-2 -2,0 -2,0 0,-2 0,-2 -2,0 -2,0 0,-8 0,-8 2,0 2,0 0,8 0,8 2,0 2,0 0,2 0,2 2,0 2,0 0,2 0,2 4,0 4,0 0,-2 0,-2 4,0 4,0 0,-2 0,-2 2,0 2,0 0,-2 0,-2 2,0 2,0 0,-2 0,-2 2,0 2,0 0,-2 0,-2 -2,0 -2,0 0,-2 0,-2 2,0 2,0 0,2 0,2 6,0 6,0 0,2 0,2 -4,0 -4,0 0,2 0,2 -4,0 -4,0 0,4 0,4 -4,0 -4,0 0,2 0,2 2,0 2,0 0,2 0,2 18,0 18,0 0,-8 0,-8 2,0 2,0 0,8 0,8 16,0 16,0 0,-2 0,-2 2,0 2,0 0,-2 0,-2 2,0 2,0 0,-4 0,-4 -2,0 -2,0 0,-2 0,-2 2,0 2,0 0,2 0,2 2,0 2,0 0,4 0,4 2,0 2,0 0,2 0,2 2,0 2,0 0,-6 0,-6 -2,0 -2,0 0,-4 0,-4 -2,0 -2,0 0,-2 0,-2 2,0 2,0 0,2 0,2 2,0 2,0 0,4 0,4 2,0 2,0 0,6 0,6 8,0 8,0 0,-2 0,-2 4,0 4,0 0,2 0,2 -4,0 -4,0 0,2 0,2 -12,0 -12,0 0,2 0,2 -4,0 -4,0 0,4 0,4 -2,0 -2,0 0,-4 0,-4 -20,0 -20,0 0,4 0,4 -2,0 -2,0 0,-4 0,-4 -18,0 -18,0 0,2 0,2 -2,0 -2,0 0,-2 0,-2 -2,0 -2,0 0,4 0,4 -2,0 -2,0 0,-2 0,-2 -10,0 -10,0 0,2 0,2 -15.999997,0 -16,0 0,-2 z m 63.999997,-10 0,-4 -2,0 -2,0 0,4 0,4 2,0 2,0 0,-4 z m 92,-2 0,-2 -2,0 -2,0 0,-2 0,-2 -2,0 -2,0 0,2 0,2 -2,0 -2,0 0,2 0,2 6,0 6,0 0,-2 z m -72,12 0,-2 4,0 4,0 0,2 0,2 -4,0 -4,0 0,-2 z m 48,0 0,-2 4,0 4,0 0,2 0,2 -4,0 -4,0 0,-2 z"
         id="path3222"
         style="fill:#000000" />
    </g>
  </g>
</svg>
