<?xml version="1.0" encoding="UTF-8" standalone="no"?>
<svg
   xmlns:dc="http://purl.org/dc/elements/1.1/"
   xmlns:cc="http://creativecommons.org/ns#"
   xmlns:rdf="http://www.w3.org/1999/02/22-rdf-syntax-ns#"
   xmlns:svg="http://www.w3.org/2000/svg"
   xmlns="http://www.w3.org/2000/svg"
   id="svg5212"
   viewBox="0 0 128 128"
   version="1.1">
  <defs
     id="defs5214" />
  <metadata
     id="metadata5216">
    <rdf:RDF>
      <cc:Work
         rdf:about="">
        <dc:format>image/svg+xml</dc:format>
        <dc:type
           rdf:resource="http://purl.org/dc/dcmitype/StillImage" />
        <dc:title></dc:title>
      </cc:Work>
    </rdf:RDF>
  </metadata>
  <path
     style="fill:#191919;fill-rule:evenodd;stroke-width:0;stroke-miterlimit:4"
     id="path5222"
     stroke-miterlimit="4"
     d="m 79.00009,54.00429 0,10 10,0 0,-10 -10,0 z m -40,0 0,10 10,0 0,-10 -10,0 z m 0,40 20,0 0,10 -20,0 0,-10 z m 50,0 0,10 -20,0 0,-10 20,0 z m 0,-60 0,-10 10,0 0,10 -10,0 z m -50,0 10,0 0,10 30,0 0,-10 10,0 0,10 10,0 0,10 10,0 0,10 10,0 0,30 -10,0 0,-20 -10,0 0,20 -10,0 0,-10 -50,0 0,10 -10,0 0,-20 -10,0 0,20 -10,0 0,-30 10,0 0,-10 10,0 0,-10 10,0 0,-10 z m -10,-10 10,0 0,10 -10,0 0,-10 z" />
</svg>
